<svg width="298" height="117" viewBox="0 0 298 117" fill="none" xmlns="http://www.w3.org/2000/svg">
<g clip-path="url(#clip0)">
<path d="M274.34 37.4299C281.03 37.0499 287.77 37.3999 294.48 37.2399C295.65 37.2099 296.8 36.2399 297.96 35.6999C297.97 35.1399 297.98 34.5899 298 34.0299C287.61 31.8699 277.21 29.7099 266.35 27.4599C270.43 26.8799 274.29 26.7999 277.82 25.6799C280.9 24.6999 283.6 22.5399 286.47 20.9099C284.52 18.8699 282.92 15.8099 280.54 14.9799C273.61 12.5699 266.46 10.4499 259.23 9.31987C246.45 7.33987 233.57 5.95987 220.69 4.74987C209.53 3.69987 198.33 3.13987 187.13 2.51987C177.96 2.00987 168.78 1.61987 159.6 1.36987C142.3 0.899865 125 0.479865 107.7 0.209865C95.2003 -0.000134543 82.6803 0.0498655 70.1603 0.00986545C63.1903 -0.0101345 56.2203 0.00986545 48.8803 0.00986545C49.5203 0.939865 49.9203 1.51987 50.7003 2.66987C48.7703 3.86987 47.1003 5.27987 45.1703 6.01987C41.2803 7.50987 37.3403 9.10987 33.2703 9.77987C29.6803 10.3699 26.9603 10.9699 26.2803 15.1699C25.9203 17.3799 25.2603 20.9299 23.9203 21.3599C18.8803 22.9999 13.5103 23.6099 8.27029 24.5999C8.26029 24.4199 8.26029 24.2499 8.25029 24.0699C6.63029 24.8099 5.02029 25.5499 1.95029 26.9599C0.0602881 31.9499 -0.169712 38.6299 0.070288 45.3599C0.100288 46.0499 0.790288 46.7299 1.69029 48.2199C1.41029 48.2199 1.16029 48.2199 0.750288 48.2199C1.10029 48.8699 1.36029 49.3399 1.61029 49.8099C2.01029 49.8499 2.36029 49.8799 2.56029 49.8999C3.10029 50.3899 3.53029 50.7699 3.85029 51.0499C3.48029 51.5299 3.12029 51.9899 2.72029 52.5099C4.47029 53.1399 5.95029 53.6699 7.34029 54.1799C7.50029 54.6599 7.60029 54.9899 7.85029 55.7599C12.8303 57.4699 17.9903 59.2499 23.1703 61.0299C22.2703 61.9499 20.9603 63.2999 19.1303 65.1799C21.5903 65.3999 22.3403 65.4699 23.1803 65.5399C23.1803 66.9199 23.1803 68.1399 23.1803 69.6099C21.1303 69.8899 18.7603 69.6299 17.1403 70.6099C15.7203 71.4699 15.1503 73.7099 13.7103 76.1899C13.9403 76.1099 14.1003 76.0499 14.2103 76.0099C14.1503 76.0299 14.0903 76.0499 14.0203 76.0799C14.5503 76.8699 15.0003 77.5399 15.3503 78.0599C19.2003 77.8699 22.8103 77.6999 26.1903 77.5399C26.0703 78.8999 25.9703 79.9299 25.8203 81.5499C25.7803 81.6299 25.5803 82.0999 25.1903 82.9899C20.4603 83.3799 15.3803 83.8099 9.83029 84.2699C9.73029 84.7499 9.51029 85.7199 9.27029 86.8499C9.21029 86.8699 8.89029 86.9799 8.39029 87.1599C9.12029 88.2199 9.78029 89.1699 10.4903 90.1899C10.2703 90.6099 9.98029 91.1599 9.71029 91.6799C0.040288 92.6499 -0.0497119 92.7299 2.01029 98.8199C2.27029 99.1399 2.53029 99.4499 2.92029 99.9199C2.85029 99.9799 2.80029 100.03 2.77029 100.06C2.83029 100.01 2.90029 99.9399 2.94029 99.8999C4.14029 100.26 5.24029 100.58 6.33029 100.91C6.32029 101.08 6.32029 101.24 6.31029 101.41C9.01029 101.66 11.7103 101.91 14.3703 102.16C14.7103 102.86 15.0603 103.6 15.6003 104.73C24.5603 104.73 33.4603 104.73 42.3603 104.73C42.3503 104.97 42.3403 105.22 42.3303 105.46C42.8403 105.59 43.3503 105.72 43.9503 105.87C43.6203 106.05 43.2803 106.23 42.8403 106.48C43.2303 106.76 43.5203 106.98 43.5403 106.99C44.9403 106.88 46.0203 106.79 47.1003 106.71C47.0503 106.91 47.0003 107.11 46.9503 107.31C49.5203 107.91 52.0903 108.51 55.1203 109.22C55.4603 109.51 56.2503 110.19 57.0503 110.88C57.0303 110.9 57.0203 110.92 57.0003 110.95C62.1903 111.97 66.6803 112.85 71.6303 113.83C71.7003 113.92 71.8203 114.08 71.9703 114.26C72.9203 114.03 73.8603 113.81 74.8103 113.58C74.7903 113.76 74.7703 113.94 74.7503 114.13C77.4303 114.25 80.1003 114.38 82.7803 114.5C82.7803 114.31 82.7703 114.13 82.7703 113.94C94.8303 113.94 106.89 113.94 118.95 113.94C118.95 113.74 118.95 113.54 118.95 113.35C123.82 113.35 128.68 113.35 133.65 113.35C133.87 113.22 134.19 113.05 134.58 112.83C135.68 112.92 136.84 113.01 139.62 113.23C157.9 113.23 177.8 113.23 199.09 113.23C199.34 113.19 201.03 112.93 202.54 112.7C205.2 112.7 207.74 112.7 210.1 112.7C210.68 112.33 211.22 111.98 211.82 111.61C212.17 112.25 212.35 112.58 212.35 112.58C213.67 112.68 214.73 112.76 216.7 112.91C216.48 112.94 217.21 112.83 217.97 112.71C218.21 112.9 218.48 113.11 218.64 113.24C220.56 113.24 222.33 113.24 224.2 113.24C224.32 113.42 224.52 113.73 224.97 114.4C225.13 114.05 225.26 113.76 225.31 113.64C228.18 113.88 230.59 114.08 233 114.28C233.01 114.16 233.02 114.04 233.03 113.92C241.05 114.53 249.06 115.15 257.08 115.76C257.07 115.82 257.07 115.87 257.06 115.93C257.8 116.01 258.55 116.1 258.48 116.09C259.96 115.68 260.64 115.46 261.34 115.31C264.16 114.69 266.97 113.84 269.83 113.56C274.28 113.13 278.77 112.79 283.22 113C285.65 113.12 287.99 114.82 290.45 115.1C292.39 115.32 294.45 114.47 296.46 114.09C296.42 113.67 296.39 113.25 296.35 112.84C289.57 111.74 282.79 110.64 276.02 109.54C276.03 109.43 276.03 109.32 276.03 109.21C278.94 109.21 281.85 109.21 285.06 109.21C285.14 108.93 285.57 108.1 285.4 107.95C284.91 107.51 284.17 107.35 283.53 107.08C283.56 107.01 283.58 106.94 283.61 106.87C281.52 106.04 279.44 105.21 276.85 104.18C280.77 102.94 284.08 101.9 287.4 100.85C286.92 99.5099 286.72 98.9499 286.43 98.1099C285.91 97.7799 285.17 97.2999 283.88 96.4599C289.17 95.8999 293.45 95.4499 297.72 94.9899C297.73 94.7999 297.74 94.6099 297.75 94.4099C287.3 93.2299 276.85 92.0399 266.25 90.8399C266.44 89.5199 266.61 88.3799 266.75 87.4499C265.63 87.0199 264.76 86.6799 263.83 86.3199C263.85 86.2999 263.87 86.2899 263.89 86.2699C255.84 84.7099 248.63 83.3199 241.92 82.0199C244.49 80.3399 247.34 78.4799 250.18 76.6299C249.96 76.2299 249.74 75.8399 249.52 75.4399C254.78 73.1899 260.04 70.9299 265.33 68.6699C265.44 68.8099 265.64 69.0599 265.64 69.0499C268.54 69.0499 271.16 69.0499 273.57 69.0499C274.3 68.4699 274.85 68.0399 275.38 67.6199C276.07 67.8199 276.7 67.9999 277.32 68.1899C277.55 67.6599 277.73 67.2599 277.99 66.6599C278.3 67.1299 278.47 67.3899 278.67 67.6899C279.11 67.3199 279.52 66.9599 280.14 66.4399C279.86 66.0499 279.59 65.6699 279.3 65.2799C279.52 65.0399 279.84 64.7099 280.18 64.3499C280.73 64.3099 281.29 64.2799 281.74 64.2499C282.18 63.8499 282.56 63.5099 282.92 63.1799C282.7 62.8399 282.5 62.5499 282.48 62.5199C280.89 61.8299 279.58 61.2599 278.27 60.6999C278.21 60.8499 278.15 61.0099 278.09 61.1599C278.63 61.5299 279.16 61.8899 279.7 62.2599C279.56 62.4399 279.42 62.6099 279.28 62.7899C278.25 61.9699 277.22 61.1499 276.2 60.3299C276.33 59.6599 276.46 58.9999 276.59 58.3299C266.49 58.3299 256.39 58.3299 246.28 58.3299C246.52 57.8099 246.71 57.4299 246.9 57.0199C246.55 56.7099 246.25 56.4499 245.46 55.7399C250.91 55.7399 255.82 55.7399 260.73 55.7399C260.72 55.5399 260.71 55.3299 260.71 55.1299C259.8 54.8999 258.88 54.6699 257.89 54.4199C257.78 54.1299 257.64 53.7799 257.53 53.4999C252.69 52.1399 247.94 50.8099 243.89 49.6699C247.48 48.5899 251.64 47.3399 255.79 46.0899C255.71 45.7899 255.64 45.4899 255.56 45.1999C258.56 44.6099 261.55 44.0099 265.45 43.2399C261.25 42.1299 258.1 41.2899 254.63 40.3699C255.2 39.9899 255.45 39.6699 255.75 39.6399C261.92 38.8299 268.11 37.7799 274.34 37.4299ZM1.79029 48.0999C1.80029 48.1399 1.80029 48.1699 1.81029 48.2099C1.80029 48.1699 1.79029 48.1299 1.79029 48.0999ZM1.76029 47.9199C1.76029 47.9299 1.76029 47.9499 1.77029 47.9699C1.77029 47.9499 1.76029 47.9299 1.76029 47.9199ZM263.5 86.5699C263.48 86.5799 263.48 86.5799 263.5 86.5699V86.5699ZM263.75 86.3399C263.67 86.4099 263.59 86.4799 263.54 86.5299C263.58 86.4899 263.66 86.4299 263.75 86.3399ZM259.12 65.6099C260.53 65.7799 261.93 65.9499 263.34 66.1199C263.29 66.3799 263.24 66.6299 263.19 66.8899C261.8 66.7099 260.41 66.5399 259.02 66.3599C259.06 66.1099 259.09 65.8599 259.12 65.6099ZM239.05 59.5599C238.58 59.4799 238.12 59.3899 237.66 59.3099C238.08 59.1499 238.52 58.9699 239.15 58.7199C239.11 59.0399 239.08 59.2999 239.05 59.5599ZM57.3903 110.4C57.4203 110.36 57.4203 110.36 57.3903 110.4V110.4ZM238.49 58.2899C238.54 58.2099 238.59 58.1199 238.64 58.0399C239.66 58.1199 240.68 58.2099 241.69 58.2899C240.63 58.2899 239.56 58.2899 238.49 58.2899Z" fill="#FBA8A9"/>
<path d="M2.7707 100.03C2.7507 100.05 2.7307 100.07 2.7207 100.08C2.7307 100.06 2.7507 100.05 2.7707 100.03Z" fill="#FBA8A9"/>
<path d="M2.7194 100.07C2.6694 100.11 2.6794 100.11 2.7194 100.07V100.07Z" fill="#FBA8A9"/>
<path d="M232.35 115.27C233.16 115.39 233.96 115.51 234.77 115.64C234.83 115.39 234.88 115.14 234.94 114.89C234.17 114.73 233.41 114.57 232.64 114.41C232.54 114.69 232.45 114.98 232.35 115.27Z" fill="#FBA8A9"/>
</g>
<defs>
<clipPath id="clip0">
<rect width="297.99" height="116.05" fill="white"/>
</clipPath>
</defs>
</svg>
