<svg width="540" height="240" viewBox="0 0 297 117" fill="none" xmlns="http://www.w3.org/2000/svg">
<g clip-path="url(#clip0)">
<path d="M72.5293 112.21C72.6393 112.31 72.6193 112.29 72.5293 112.21V112.21Z" fill="#FBA8A9"/>
<path d="M195 116.05C197.14 115.09 198.99 114.26 200.84 113.43C198.83 113.43 196.82 113.43 194.57 113.43C194.74 114.46 194.82 114.92 195 116.05Z" fill="#FBA8A9"/>
<path d="M270.561 96.0698C270.561 96.5698 270.561 96.8998 270.561 97.2098C271.681 97.6098 272.731 97.9798 273.691 98.3198C274.001 97.6798 274.301 97.0598 274.681 96.2498C274.441 96.0398 274.191 95.8198 273.881 95.5498C273.611 95.9398 273.401 96.2498 273.191 96.5598C272.311 96.3998 271.481 96.2398 270.561 96.0698Z" fill="#FBA8A9"/>
<path d="M1.8293 64.5996C1.8093 64.6196 1.7893 64.6396 1.7793 64.6496C1.7893 64.6396 1.8093 64.6196 1.8293 64.5996Z" fill="#FBA8A9"/>
<path d="M296.81 58.94C286.36 57.76 275.91 56.57 265.31 55.37C265.5 54.05 265.67 52.91 265.81 51.98C264.69 51.55 263.82 51.21 262.89 50.85C262.91 50.83 262.93 50.82 262.95 50.8C254.9 49.24 247.69 47.85 240.98 46.55C243.55 44.87 246.4 43.01 249.24 41.16C249.02 40.76 248.8 40.37 248.58 39.97C253.84 37.72 259.1 35.46 264.39 33.2C264.5 33.34 264.7 33.59 264.7 33.58C267.6 33.58 270.22 33.58 272.63 33.58C273.36 33 273.91 32.57 274.44 32.15C275.13 32.35 275.76 32.53 276.38 32.72C276.61 32.19 276.79 31.79 277.05 31.19C277.36 31.66 277.53 31.92 277.73 32.22C278.17 31.85 278.58 31.5 279.2 30.97C278.92 30.58 278.65 30.2 278.36 29.81C278.58 29.57 278.9 29.24 279.24 28.88C279.79 28.84 280.35 28.81 280.8 28.78C281.24 28.38 281.62 28.04 281.98 27.71C281.76 27.37 281.56 27.08 281.54 27.05C279.95 26.36 278.64 25.79 277.33 25.23C277.27 25.38 277.21 25.54 277.15 25.69C277.69 26.06 278.22 26.42 278.76 26.79C278.62 26.97 278.48 27.14 278.34 27.32C277.31 26.5 276.28 25.68 275.26 24.86C275.39 24.19 275.52 23.53 275.65 22.86C262.96 22.86 250.26 22.86 237.57 22.86C237.95 22.25 238.33 21.64 238.71 21.03C237.99 18.57 237.26 16.12 236.25 12.69C236.11 12.87 236.02 12.98 235.97 13.05C236.05 12.94 236.2 12.75 236.36 12.55C236.18 12.09 236.01 11.67 235.98 11.59C235.29 11.26 234.93 11.09 234.78 11.02C231.96 10.52 229.31 10.05 226.47 9.54C226.36 9.74 226.01 10.38 225.59 11.15C223.73 10.53 222.08 9.99 220.31 9.41C220.27 10.04 220.26 10.36 220.23 10.76C219.85 10.51 219.53 10.31 219.77 10.47C216.93 10.47 214.66 10.47 212.71 10.47C212.11 9.65 211.75 9.17 211.48 8.81C210.65 9.27 210.07 9.59 209.44 9.94C209.27 9.37 209.17 9.05 209.25 9.3C181.62 8.2 154.27 7.1 126.92 6.01C126.86 6.16 126.81 6.31 126.75 6.46C125.01 6.05 123.26 5.64 121.2 5.16C121.21 5.14 120.88 5.66 120.48 6.3C119.65 6.35 118.7 6.41 117.86 6.46C117.47 5.92 117.16 5.49 116.28 4.27C116.78 5.56 116.91 5.91 117.2 6.67C115.82 6.29 114.81 6.02 113.81 5.75C113.81 5.76 113.81 6.05 113.81 6.44C112.38 6.44 111.01 6.44 109.51 6.44C109.42 5.64 109.35 4.99 109.27 4.34C108.26 5.17 107.21 6.03 105.3 7.6C105.82 5.74 106 5.11 106.17 4.51C105.82 4.63 105.47 4.76 105.12 4.88C105.1 4.71 105.08 4.54 105.06 4.37C103.95 4.57 102.83 4.76 102.18 4.88C100.74 4.32 99.6998 3.92 98.5698 3.48C98.4998 3.13 98.4098 2.64 98.3198 2.16C98.7298 1.71 99.0798 1.32 99.4498 0.91C100.14 1.68 100.79 2.4 101.6 3.3C101.92 2.51 102.05 2.19 102.18 1.87C103.36 1.93 104.5 1.99 105.65 2.04C105.69 1.65 105.72 1.26 105.76 0.87C102.54 0.58 99.3198 0.29 96.0398 0C95.8298 0.23 95.5798 0.51 95.8098 0.25C90.3998 0.25 85.5298 0.25 80.6598 0.25C80.6598 0.54 80.6698 0.83 80.6698 1.12C73.4798 1.12 66.2798 1.12 59.1098 1.12C58.5598 2.81 58.2398 3.83 57.6698 5.6C57.5898 6.04 57.3998 7.19 57.2598 8C56.6898 8.43 56.1098 8.87 55.4598 9.35C53.1998 9.6 50.7998 9.87 48.3698 10.14C48.3098 10.7 48.2598 11.19 48.2098 11.71C47.5598 11.96 46.9698 12.19 47.2298 12.09C45.8698 13.29 45.1498 13.92 44.3998 14.59C44.4498 14.71 44.5898 15.01 44.7998 15.49C42.4698 15.79 40.2698 16.07 38.4998 16.3C37.6998 17.46 37.1198 18.3 36.5398 19.15C36.7798 19.34 37.0198 19.53 37.2598 19.71C35.2298 22.38 33.1898 25.05 31.1598 27.72C30.7498 27.28 30.3398 26.85 29.9398 26.41C28.0198 26 26.0998 25.58 22.9398 24.9C22.0898 25.78 20.5798 27.32 18.2298 29.73C20.6898 29.95 21.4398 30.02 22.2798 30.09C22.2798 31.47 22.2798 32.69 22.2798 34.16C20.2298 34.44 17.8598 34.18 16.2398 35.16C14.8198 36.02 14.2498 38.26 12.8098 40.74C13.0398 40.66 13.1998 40.6 13.3098 40.56C13.2498 40.58 13.1898 40.6 13.1198 40.63C13.6498 41.42 14.0998 42.09 14.4498 42.61C18.2998 42.42 21.9098 42.25 25.2898 42.09C25.1698 43.45 25.0698 44.48 24.9198 46.1C24.9798 45.97 24.7798 46.43 24.2898 47.54C19.5598 47.93 14.4798 48.36 8.92979 48.82C8.82979 49.3 8.60979 50.27 8.36979 51.4C8.30979 51.42 7.98979 51.53 7.48979 51.71C8.21979 52.77 8.87979 53.72 9.58979 54.74C9.36979 55.16 9.07979 55.71 8.80979 56.23C-0.860208 57.2 -0.950208 57.28 1.10979 63.37C1.36979 63.69 1.62979 64 2.01979 64.47C1.94979 64.53 1.89979 64.58 1.86979 64.61C1.92979 64.56 1.99979 64.49 2.03979 64.45C3.23979 64.81 4.33979 65.13 5.42979 65.46C5.41979 65.63 5.41979 65.79 5.40979 65.96C8.10979 66.21 10.8098 66.46 13.4698 66.71C13.8098 67.41 14.1598 68.15 14.6998 69.28C16.7998 69.28 18.8898 69.28 20.9898 69.28C20.9198 70.13 20.8498 70.98 20.7798 71.83C21.0098 71.87 21.2398 71.9 21.4698 71.94C21.3998 72.24 21.3398 72.54 21.2598 72.9C21.6098 72.95 21.9398 73 22.3698 73.06C22.1598 73.49 21.9998 73.83 21.8498 74.16C21.9898 74.48 22.0998 74.75 22.4598 75.57C18.2798 76.06 14.3298 76.52 9.68979 77.07C9.52979 77.33 8.92979 78.31 8.34979 79.27C8.60979 79.78 8.82979 80.2 9.03979 80.61C8.02979 82.41 7.87979 84.16 8.12979 85.84C8.19979 86.31 9.47979 86.59 10.4698 87.1C10.4798 87.11 10.6298 87.46 10.7898 87.84C12.3798 87.75 13.9098 87.66 15.4298 87.57C15.5798 88.13 15.6598 88.46 15.7698 88.87C16.1098 88.77 16.3798 88.7 16.7298 88.6C16.6598 88.69 16.5998 88.78 16.5498 88.85C16.5598 88.84 16.5698 88.83 16.5798 88.81C15.0398 89.73 14.2898 90.17 12.7598 91.08C12.6898 91.07 11.6598 90.98 10.6398 90.89C10.6198 91.09 10.5998 91.3 10.5798 91.5C12.3898 91.5 14.2098 91.5 15.9998 91.5C16.1398 91.96 16.2798 92.41 16.4698 92.99C17.0098 92.73 17.4398 92.53 17.8898 92.31C18.3298 92.62 18.7398 92.92 19.3198 93.34C19.2298 94.3 19.1298 95.31 19.0198 96.43C19.6198 97.39 20.3098 98.5 20.9898 99.6C20.8998 99.66 20.8098 99.72 20.7198 99.78C20.9398 100.09 21.1598 100.41 21.5098 100.92C15.8498 101.57 10.3598 102.19 5.27979 102.77C4.63979 104.3 4.33979 105.02 3.90979 106.03C5.41979 106.53 6.82979 106.99 8.28979 107.47C8.57979 107.09 8.83979 106.76 8.84979 106.75C11.5798 107 14.1298 107.23 16.6798 107.46C16.6698 107.69 16.6698 107.92 16.6598 108.15C17.3298 107.93 18.0098 107.72 17.8998 107.75C21.2598 107.75 23.8398 107.75 26.4298 107.75C26.4298 107.74 26.4298 107.73 26.4298 107.72C27.8498 107.72 29.2698 107.72 30.4498 107.72C31.1198 106.74 31.6198 106.02 32.2498 105.09C32.8798 106.21 33.0598 106.55 33.4198 107.19C34.2798 106.81 35.1198 106.45 36.0698 106.03C36.1598 106.4 36.2798 106.87 36.5298 107.92C48.2598 109.19 60.1298 110.48 72.0398 111.77C72.2398 111.96 72.4398 112.14 72.5498 112.24C84.5198 113.21 95.7998 114.13 107.08 115.04C107.12 114.83 107.15 114.62 107.19 114.41C110.61 114.18 114.02 113.94 117.42 113.71C117.65 114.09 117.82 114.39 117.96 114.61C120.62 114.32 123.2 114.04 125.7 113.76C125.97 114.24 126.12 114.5 126.27 114.77C139.58 114.77 152.82 114.77 166.06 114.77C166.06 114.65 166.05 114.52 166.05 114.4C167.73 114.4 169.4 114.4 171.08 114.4C171.07 114.49 171.07 114.58 171.06 114.68C176.1 114.68 181.14 114.68 186.18 114.68C186.18 114.88 186.18 115.08 186.17 115.28C186.5 115.16 186.84 115.03 186.92 115C189.12 115 191.07 115 193.44 115C193.47 114.97 193.88 114.67 194.22 114.42C194.26 113.82 194.29 113.36 194.32 112.84C196.62 112.65 198.84 112.47 200.94 112.29C200.94 112.73 200.94 113.1 200.94 113.47L200.92 113.45C200.9 113.46 200.89 113.46 200.87 113.47C200.89 113.47 200.91 113.47 200.93 113.47C201.12 113.76 201.3 114.04 201.5 114.35C200.84 114.65 200.35 114.87 199.03 115.47C200.68 115.63 201.43 115.7 202.15 115.77C202.24 115.57 202.31 115.4 202.36 115.29C202.35 115.31 202.35 115.32 202.34 115.34C215.53 115.34 228.34 115.34 240.16 115.34C240.07 115.26 239.15 114.45 238.01 113.44C236.92 113.44 235.41 113.44 233.9 113.44C233.83 113.23 233.76 113.01 233.69 112.8C235.1 112.32 236.51 111.83 237.92 111.35C237.9 111.14 237.88 110.93 237.86 110.73C244.79 110.73 251.72 110.73 258.66 110.73C258.66 110.63 258.65 110.54 258.65 110.44C262.47 110.27 266.28 110.1 270.01 109.94C269.93 109.79 269.74 109.47 269.44 108.95C274.23 108.95 278.75 108.95 283.26 108.95C283.29 108.52 283.33 108.1 283.36 107.67C275.98 106.76 268.61 105.85 261.23 104.93C261.23 105.08 261.23 105.23 261.23 105.38C255.31 104.95 249.39 104.53 243.25 104.08C243.09 103.94 242.74 103.62 242.2 103.14C242.85 103.27 243.27 103.35 243.74 103.44C243.96 103.25 244.18 103.06 244.07 103.15C245.2 103.15 245.96 103.15 246.72 103.15C246.72 103.18 246.72 103.2 246.72 103.23C247.36 103.23 247.99 103.23 248.17 103.23C250.46 103.72 251.66 103.98 254.11 104.51C254.04 104.46 253.98 104.42 253.92 104.38C253.95 104.4 253.99 104.43 254.02 104.45C254.16 104.19 254.27 103.99 254.32 103.9C257.48 103.18 260.24 102.54 263 101.91C262.92 101.61 262.85 101.32 262.77 101.02C262.1 100.89 261.43 100.77 260.77 100.64C260.78 100.47 260.78 100.29 260.79 100.12C261.81 100 262.82 99.89 263.89 99.77C263.79 100.19 263.72 100.47 263.55 101.19C264.76 101.11 265.75 101.05 266.82 100.98C266.9 101.14 267.1 101.53 267.39 102.1C268.13 101.32 268.71 100.7 269.44 99.93C270.19 100 271.21 100.09 272.23 100.19C272.32 99.94 272.41 99.69 272.51 99.44C271.21 98.78 269.91 98.12 268.65 97.48C269.11 97.16 269.61 96.81 270.19 96.41C269.98 96.05 269.79 95.73 269.4 95.07C271.15 94.71 272.78 94.38 274.84 93.96C274.88 93.94 275.33 93.64 275.85 93.31C275.91 93.06 276 92.73 276.09 92.37C277.58 91.31 279.04 90.27 280.7 89.09C279.76 88.74 279.05 88.39 278.3 88.23C272.14 86.85 265.97 85.5 259.81 84.14C260.25 84.06 260.71 83.89 261.13 83.95C267.19 84.75 273.29 86.36 279.12 83.27C279.31 82.76 279.43 82.42 279.55 82.08C281.29 80.79 283.02 79.51 284.76 78.22C284.85 78.34 284.94 78.46 285.04 78.58C285.11 78.49 285.18 78.4 285.26 78.31C286.67 78.85 288.09 79.51 289.54 79.68C291.48 79.9 293.54 79.05 295.55 78.67C295.51 78.25 295.48 77.83 295.44 77.42C292.23 76.9 289.03 76.38 285.82 75.86C282.75 75.15 279.78 74.47 277.29 73.9C276.35 73.94 275.68 73.97 275.1 74C275.1 73.93 275.11 73.86 275.11 73.79C278.02 73.79 280.93 73.79 284.14 73.79C284.22 73.51 284.65 72.68 284.48 72.53C283.99 72.09 283.25 71.93 282.61 71.66C282.64 71.59 282.66 71.52 282.69 71.45C281.05 70.8 279.41 70.14 277.53 69.4C278.07 68.94 278.74 68.31 279.66 67.59C282.05 66.84 284.28 66.13 286.49 65.43C286.01 64.09 285.81 63.53 285.52 62.69C285 62.36 284.26 61.88 282.97 61.04C288.26 60.48 292.54 60.03 296.81 59.57C296.79 59.33 296.8 59.13 296.81 58.94ZM258.19 30.19C259.6 30.36 261 30.53 262.41 30.7C262.36 30.96 262.31 31.21 262.26 31.47C260.87 31.29 259.48 31.12 258.09 30.94C258.12 30.69 258.15 30.44 258.19 30.19ZM16.3898 88.99C16.3498 89.05 16.3398 89.06 16.3898 88.99V88.99ZM262.56 51.15C262.55 51.16 262.54 51.16 262.56 51.15V51.15ZM262.81 50.92C262.73 50.99 262.65 51.06 262.6 51.11C262.64 51.07 262.72 51.01 262.81 50.92ZM238.22 23.3C238.11 24.17 238.04 24.72 237.95 25.36C237.42 24.9 237.01 24.56 236.38 24.02C236.92 23.81 237.41 23.61 238.22 23.3ZM103.34 5.17C103.66 5.62 103.93 5.99 104.49 6.76C103.6 6.48 103.16 6.34 102.49 6.12C102.84 5.72 103.04 5.5 103.34 5.17ZM93.5198 2.9C93.8598 2.43 94.1698 1.99 94.4698 1.58C95.1398 2.05 95.5498 2.34 95.9398 2.61C95.8298 3.58 95.7198 4.49 95.6098 5.39C95.4498 5.38 95.2998 5.36 95.1398 5.35C95.1398 4.64 95.1398 3.92 95.1398 2.95C94.6298 3.08 94.1898 3.19 93.4398 3.39C93.3598 3.33 92.8998 3.05 91.1298 2C92.8598 2.65 93.1598 2.76 93.5198 2.9ZM77.7798 1.14C77.9698 1.53 78.1298 1.87 78.2098 2.05C79.2198 2.22 80.0598 2.36 80.7598 2.48C81.6298 2.22 82.4298 1.97 83.2198 1.73C83.3398 1.94 83.4598 2.14 83.5698 2.35C83.1298 2.69 82.6798 3.02 82.0198 3.53C81.9698 4.28 81.9098 5.22 81.8498 6.07C81.1398 6.42 80.5498 6.71 79.4398 7.25C80.2198 6.34 80.7098 5.76 81.3198 5.06C81.2798 4.94 81.1598 4.52 80.9598 3.86C80.1198 3.81 79.1998 3.75 78.3798 3.7C77.7998 2.9 77.2198 2.12 76.5998 1.27C76.9398 1.23 77.3398 1.18 77.7798 1.14ZM202.39 115.15C202.41 115.1 202.41 115.09 202.39 115.15V115.15ZM202.36 115.22C202.37 115.2 202.38 115.18 202.39 115.16C202.38 115.18 202.37 115.2 202.36 115.22ZM253.85 104.29C253.45 104 253.59 104.11 253.85 104.29V104.29ZM256.94 83.91C256.98 83.71 257.03 83.5 257.07 83.3C257.93 83.56 258.8 83.82 259.66 84.07C258.76 84.02 257.85 83.96 256.94 83.91ZM265.94 82.35C260.07 82.35 254.21 82.35 247.55 82.35C249.74 81.67 251.16 81.23 252.83 80.72C254.56 80.89 256.46 81.08 257.41 81.17C260.44 81.03 262.55 80.93 264.73 80.83C264.83 81.32 264.89 81.6 264.95 81.93C265.29 81.93 265.62 81.93 265.94 81.93C265.95 82.07 265.95 82.21 265.94 82.35Z" fill="#FBA8A9"/>
<path d="M106.181 4.4698C106.431 4.6798 106.681 4.8898 107.271 5.3798C107.131 4.5298 107.081 4.2198 107.031 3.9498C107.271 3.9098 107.471 3.8798 107.531 3.8698C107.421 3.1298 107.321 2.4998 107.211 1.7998C107.001 1.7998 106.781 1.7998 106.711 1.7998C106.021 2.4198 105.631 2.7598 105.311 3.0498C105.611 3.5198 105.891 3.9998 106.181 4.4698C106.181 4.4798 106.171 4.4898 106.171 4.4998C106.181 4.4998 106.191 4.4898 106.191 4.4898C106.201 4.4998 106.181 4.4698 106.181 4.4698Z" fill="#FBA8A9"/>
<path d="M1.77995 64.6504C1.72995 64.6904 1.73995 64.6804 1.77995 64.6504V64.6504Z" fill="#FBA8A9"/>
<path d="M110.929 2.37016C110.939 2.44016 110.939 2.51016 110.949 2.58016C111.469 2.43016 111.999 2.28016 112.309 2.20016C113.309 2.41016 114.189 2.59016 115.069 2.77016C115.089 2.53016 115.109 2.30016 115.129 2.06016C113.709 1.95016 112.289 1.83016 110.879 1.72016C110.889 1.86016 110.899 2.01016 110.909 2.15016C110.019 1.84016 109.729 1.74016 109.339 1.61016C109.689 1.32016 109.909 1.13016 110.469 0.660156C109.249 0.720156 108.439 0.760156 107.459 0.810156C107.829 1.62016 108.079 2.17016 108.439 2.97016C109.069 2.82016 109.689 2.67016 110.929 2.37016Z" fill="#FBA8A9"/>
<path d="M120.9 2.43023C120.21 2.12023 119.52 1.80023 118.82 1.49023C118.71 1.73023 118.6 1.97023 118.5 2.21023C119.2 2.49023 119.91 2.76023 120.61 3.04023C120.7 2.83023 120.8 2.63023 120.9 2.43023Z" fill="#FBA8A9"/>
</g>
<defs>
<clipPath id="clip0">
<rect width="296.81" height="116.05" fill="white"/>
</clipPath>
</defs>
</svg>
