<svg width="306" height="117" viewBox="0 0 306 117" fill="none" xmlns="http://www.w3.org/2000/svg">
<g clip-path="url(#clip0)">
<path d="M273.53 66.7197C277.61 66.1397 281.47 66.0597 285 64.9397C288.08 63.9597 290.78 61.7997 293.65 60.1697C291.7 58.1297 290.1 55.0697 287.72 54.2397C283.6 52.8097 279.41 51.4797 275.17 50.4097C274.91 50.3197 274.66 50.2297 274.4 50.1697C268.24 48.7897 262.07 47.4397 255.91 46.0797C256.35 45.9997 256.81 45.8297 257.23 45.8897C263.29 46.6897 269.39 48.2997 275.22 45.2097C275.41 44.6997 275.53 44.3597 275.65 44.0197C277.39 42.7297 279.12 41.4497 280.86 40.1597C280.95 40.2797 281.04 40.3997 281.14 40.5197C281.38 40.2197 281.62 39.9297 281.76 39.7497C282.75 39.5797 283.58 39.4397 284.41 39.3097C284.45 39.0097 284.5 38.6997 284.54 38.3997C280.57 37.4897 276.59 36.5697 273.4 35.8397C271.78 35.9097 270.93 35.9497 270.08 35.9897C270.12 35.7197 270.15 35.4397 270.19 35.1697C266.54 34.5797 262.88 33.9997 258.3 33.2597C263.53 32.8897 267.86 32.6797 272.16 32.1897C273.1 32.0797 273.92 30.9297 275.96 29.3697C270.29 27.3597 266.12 25.8797 261.94 24.3997C262.01 24.2797 262.2 23.9797 262.31 23.7997C263.71 23.4597 264.98 23.1497 266.25 22.8497C266.23 22.6197 266.21 22.3897 266.19 22.1497C258.58 20.8397 250.97 19.5297 242.99 18.1597C244.16 17.1597 245.34 16.1597 246.53 15.1497C246.41 14.6597 246.29 14.1797 246.17 13.6897C234.64 12.9197 223.1 12.1497 210.29 11.2897C213.59 10.7497 215.72 10.3997 218.97 9.86966C217.41 9.52966 216.27 9.27966 215.3 9.05966C220.33 8.15966 225.37 7.25966 230.4 6.35966C230.39 5.65966 230.37 4.96966 230.36 4.26966C214.87 3.56966 199.4 2.59966 183.9 2.23966C168.52 1.88966 153.12 2.15966 137.73 2.15966C137.71 1.60966 137.68 1.05966 137.66 0.499662C137 0.859662 136.35 1.19966 135.6 1.59966C135.43 1.49966 135.14 1.33966 134.87 1.17966C135.1 1.07966 135.25 1.00966 136.52 0.429662C126.96 0.429662 118.74 0.419662 110.51 0.429662C106.35 0.439662 102.18 0.279662 98.04 0.569662C81.78 1.70966 65.54 3.00966 49.29 4.22966C46.58 4.42966 43.84 4.32966 41.15 4.63966C39.75 4.79966 38.41 5.54966 36.6 6.19966C37.53 6.83966 37.85 7.04966 38.11 7.22966C38.53 6.93966 38.87 6.69966 39.25 6.43966C39.68 6.75966 40.04 7.02966 40.42 7.30966C40.59 7.02966 40.73 6.79966 41.07 6.24966C41.16 6.88966 41.21 7.18966 41.24 7.44966C39.7 8.12966 38.31 8.74966 36.91 9.36966C36.95 9.71966 37 10.0697 37.04 10.4197C31.02 11.4697 25 12.5197 19.11 13.5397C18.59 15.9497 18.17 17.9397 17.62 20.4997C17.61 20.5197 17.18 21.0297 17.26 20.9397C17.42 23.6997 17.55 25.8997 17.68 28.0897C17.56 28.1097 17.44 28.1397 17.32 28.1597C17.16 30.0497 17.01 31.9397 16.85 33.8197C17.08 33.8597 17.31 33.8897 17.54 33.9297C17.47 34.2297 17.41 34.5297 17.33 34.8897C17.68 34.9397 18.01 34.9897 18.44 35.0497C18.23 35.4797 18.07 35.8197 17.92 36.1497C18.06 36.4697 18.17 36.7397 18.53 37.5597C14.35 38.0497 10.4 38.5097 5.76 39.0597C5.6 39.3197 5 40.2997 4.42 41.2597C4.68 41.7697 4.9 42.1897 5.11 42.5997C4.1 44.3997 3.95 46.1497 4.2 47.8297C4.27 48.2997 5.55 48.5797 6.54 49.0897C6.55 49.0997 6.7 49.4497 6.86 49.8297C8.45 49.7397 9.98 49.6497 11.5 49.5597C11.65 50.1197 11.73 50.4497 11.84 50.8597C12.18 50.7597 12.45 50.6897 12.8 50.5897C12.73 50.6797 12.67 50.7697 12.62 50.8397C12.63 50.8297 12.64 50.8197 12.65 50.7997C11.11 51.7197 10.36 52.1597 8.83 53.0697C8.76 53.0597 7.73 52.9697 6.71 52.8797C6.69 53.0797 6.67 53.2897 6.65 53.4897C8.46 53.4897 10.28 53.4897 12.07 53.4897C12.21 53.9497 12.35 54.3997 12.54 54.9797C13.08 54.7197 13.51 54.5197 13.96 54.2997C14.4 54.6097 14.81 54.9097 15.39 55.3297C15.3 56.2897 15.2 57.2997 15.09 58.4197C15.69 59.3797 16.38 60.4897 17.06 61.5897C16.97 61.6497 16.88 61.7097 16.79 61.7697C17.01 62.0797 17.23 62.3997 17.58 62.9097C11.92 63.5597 6.43 64.1797 1.35 64.7597C0.73 66.2797 0.42 66.9997 0 68.0097C1.51 68.5097 2.92 68.9697 4.38 69.4497C4.67 69.0697 4.93 68.7397 4.94 68.7297C6.09 68.8297 7.21 68.9397 8.31 69.0397C7.21 73.5997 7.07 79.0797 7.27 84.6097C7.3 85.2997 7.99 85.9797 8.89 87.4697C8.61 87.4697 8.36 87.4697 7.95 87.4697C8.3 88.1197 8.56 88.5897 8.81 89.0597C9.21 89.0997 9.56 89.1297 9.76 89.1497C10.3 89.6397 10.73 90.0197 11.05 90.2997C10.68 90.7797 10.32 91.2397 9.92 91.7597C11.67 92.3897 13.15 92.9197 14.54 93.4297C14.7 93.9097 14.8 94.2397 15.05 95.0097C20.65 96.9397 26.47 98.9397 32.29 100.94C34.89 101.65 37.29 103.2 39.89 103.67C44.29 104.47 45.29 105.88 43.27 109.74C43.81 110.15 44.36 110.57 44.82 110.92C44.55 111.53 44.35 112 44.11 112.55C48.62 113.09 52.92 113.61 57.71 114.19C56.72 114.67 56.2 114.91 54.62 115.67C56.66 115.87 57.69 115.97 58.68 116.07C58.86 115.54 58.97 115.22 59.19 114.58C59.92 115 60.55 115.36 61.33 115.8C61.84 115.8 62.54 115.8 63.9 115.8C62.5 115.09 61.68 114.67 60.85 114.24C60.92 113.91 60.98 113.58 61.05 113.25C85.07 113.25 109.08 113.25 133.1 113.25C133.1 112.97 133.1 112.69 133.1 112.42C130.29 112.42 127.48 112.42 124.67 112.42C124.67 112.18 124.68 111.94 124.68 111.7C137.56 111.7 150.44 111.7 163.43 111.7C163.26 111.21 163.15 110.91 163.09 110.76C172.71 110.76 182.33 110.39 191.91 110.86C201.49 111.34 211.03 112.66 220.62 113.62C220.88 113.39 221.17 113.15 221.47 112.89C221.69 113.18 221.86 113.4 222.05 113.65C222.48 113.43 222.82 113.26 223.17 113.09C223.2 113.51 223.23 113.92 223.27 114.34C230.75 113.87 238.24 113.39 245.72 112.92C245.73 112.71 245.73 112.49 245.74 112.28C246.72 112.03 247.7 111.77 248.56 111.55C248.96 110.33 249.3 109.31 249.61 108.37C251.44 108.37 252.97 108.37 254.47 108.37C254.8 107.57 255.07 106.94 255.38 106.19C253.81 105.2 252.36 104.28 251.04 103.45C250.27 101.93 249.55 100.51 248.96 99.3497C246.51 98.9097 244.38 98.5297 242.25 98.1397C242.29 97.7797 242.33 97.4197 242.36 97.0597C246.02 97.3597 249.68 97.6597 253.26 97.9497C253.6 97.2297 253.82 96.7797 254.05 96.2797C253.7 95.9697 253.4 95.7097 252.61 94.9997C258.06 94.9997 262.97 94.9997 267.88 94.9997C267.87 94.7997 267.86 94.5897 267.86 94.3897C266.95 94.1597 266.03 93.9297 265.04 93.6797C264.93 93.3897 264.79 93.0397 264.68 92.7597C259.84 91.3997 255.09 90.0697 251.04 88.9297C254.63 87.8497 258.79 86.5997 262.94 85.3497C262.86 85.0497 262.79 84.7497 262.71 84.4597C265.71 83.8697 268.7 83.2697 272.6 82.4997C268.4 81.3897 265.25 80.5497 261.78 79.6297C262.35 79.2497 262.6 78.9297 262.9 78.8997C269.1 78.1297 275.29 77.0897 281.51 76.7397C288.2 76.3597 294.94 76.7097 301.65 76.5497C302.82 76.5197 303.97 75.5497 305.13 75.0097C305.14 74.4497 305.15 73.8997 305.17 73.3397C294.79 71.1297 284.4 68.9697 273.53 66.7197ZM12.52 50.9897C12.48 51.0497 12.47 51.0597 12.52 50.9897V50.9897ZM253.07 45.9097C253.11 45.7097 253.16 45.4997 253.2 45.2997C254.06 45.5597 254.93 45.8197 255.79 46.0697C254.88 46.0197 253.98 45.9597 253.07 45.9097ZM248.96 42.7197C250.69 42.8897 252.59 43.0797 253.54 43.1697C256.57 43.0297 258.68 42.9297 260.86 42.8297C260.96 43.3197 261.02 43.5997 261.08 43.9297C261.42 43.9297 261.75 43.9297 262.07 43.9297C262.07 44.0697 262.07 44.2097 262.07 44.3497C256.2 44.3497 250.34 44.3497 243.68 44.3497C245.88 43.6697 247.29 43.2297 248.96 42.7197ZM8.98 87.3597C8.99 87.3997 8.99 87.4297 9 87.4697C8.99 87.4197 8.98 87.3897 8.98 87.3597ZM8.95 87.1797C8.95 87.1897 8.95 87.2097 8.96 87.2297C8.95 87.2097 8.95 87.1897 8.95 87.1797Z" fill="#FBA8A9"/>
<path d="M146.4 0.4C146.4 0.27 146.4 0.13 146.39 0C145.32 0 144.24 0 143.17 0C143.18 0.13 143.19 0.27 143.2 0.4C144.27 0.4 145.33 0.4 146.4 0.4Z" fill="#FBA8A9"/>
</g>
<defs>
<clipPath id="clip0">
<rect width="305.18" height="116.05" fill="white"/>
</clipPath>
</defs>
</svg>
