<svg width="1126" height="288" viewBox="0 0 1126 288" fill="none" xmlns="http://www.w3.org/2000/svg">
<path d="M679.413 165.523C689.535 164.084 699.111 163.886 707.868 161.107C715.509 158.676 722.207 153.317 729.327 149.273C724.49 144.212 720.52 136.621 714.616 134.562C704.395 131.014 694 127.715 683.481 125.06C682.836 124.837 682.216 124.614 681.571 124.465C666.289 121.041 650.982 117.692 635.7 114.318C636.792 114.12 637.933 113.698 638.975 113.847C654.009 115.832 669.142 119.826 683.605 112.16C684.077 110.895 684.374 110.051 684.672 109.208C688.989 106.007 693.281 102.832 697.597 99.6316C697.821 99.9293 698.044 100.227 698.292 100.525C698.887 99.7805 699.483 99.061 699.83 98.6145C702.286 98.1927 704.345 97.8454 706.404 97.5229C706.504 96.7787 706.628 96.0096 706.727 95.2653C696.878 93.0078 687.004 90.7254 679.09 88.9144C675.071 89.088 672.963 89.1873 670.854 89.2865C670.953 88.6167 671.027 87.922 671.127 87.2522C662.072 85.7885 652.992 84.3496 641.629 82.5138C654.604 81.5959 665.346 81.0749 676.014 79.8593C678.346 79.5864 680.38 76.7334 685.441 72.8633C671.375 67.8768 661.03 64.2051 650.66 60.5335C650.833 60.2357 651.305 59.4915 651.578 59.0449C655.051 58.2015 658.201 57.4324 661.352 56.6881C661.303 56.1175 661.253 55.5469 661.203 54.9515C642.324 51.7016 623.445 48.4517 603.648 45.053C606.55 42.5721 609.478 40.0913 612.43 37.5856C612.132 36.37 611.834 35.1792 611.537 33.9636C582.933 32.0533 554.304 30.143 522.524 28.0095C530.711 26.6699 535.995 25.8016 544.058 24.4867C540.188 23.6432 537.359 23.023 534.953 22.4772C547.432 20.2445 559.935 18.0117 572.414 15.7789C572.389 14.0423 572.339 12.3306 572.315 10.594C533.886 8.85737 495.507 6.45094 457.054 5.55784C418.899 4.68954 380.694 5.35937 342.513 5.35937C342.464 3.9949 342.389 2.63044 342.34 1.24116C340.702 2.13427 339.09 2.97775 337.229 3.97009C336.808 3.72201 336.088 3.32507 335.418 2.92814C335.989 2.68005 336.361 2.50639 339.512 1.0675C315.795 1.0675 295.402 1.04269 274.985 1.0675C264.664 1.09231 254.319 0.695373 244.049 1.41482C203.71 4.24299 163.421 7.46809 123.107 10.4947C116.384 10.9909 109.587 10.7428 102.913 11.5119C99.4399 11.9088 96.1156 13.7694 91.6252 15.382C93.9324 16.9697 94.7263 17.4907 95.3713 17.9373C96.4133 17.2178 97.2568 16.6224 98.1995 15.9774C99.2663 16.7713 100.159 17.4411 101.102 18.1357C101.524 17.4411 101.871 16.8705 102.715 15.506C102.938 17.0938 103.062 17.838 103.136 18.4831C99.3159 20.17 95.8675 21.7082 92.3943 23.2463C92.4935 24.1146 92.6176 24.9829 92.7168 25.8512C77.7821 28.4561 62.8474 31.061 48.2352 33.5914C46.9452 39.5703 45.9032 44.5072 44.5387 50.8581C44.5139 50.9078 43.4472 52.173 43.6456 51.9497C44.0426 58.7969 44.3651 64.2547 44.6876 69.6878C44.3899 69.7374 44.0922 69.8118 43.7945 69.8614C43.3975 74.5502 43.0254 79.2391 42.6285 83.903C43.1991 84.0023 43.7697 84.0767 44.3403 84.1759C44.1666 84.9202 44.0177 85.6644 43.8193 86.5576C44.6876 86.6816 45.5063 86.8056 46.573 86.9545C46.052 88.0213 45.6551 88.8647 45.283 89.6834C45.6303 90.4773 45.9032 91.1471 46.7963 93.1814C36.4264 94.397 26.627 95.5382 15.1159 96.9027C14.7189 97.5477 13.2304 99.9789 11.7915 102.361C12.4365 103.626 12.9823 104.668 13.5033 105.685C10.9977 110.15 10.6255 114.492 11.2457 118.66C11.4194 119.826 14.5949 120.52 17.0509 121.786C17.0757 121.81 17.4479 122.679 17.8448 123.621C21.7893 123.398 25.585 123.175 29.3559 122.952C29.7281 124.341 29.9265 125.16 30.1994 126.177C31.0429 125.929 31.7127 125.755 32.581 125.507C32.4074 125.73 32.2585 125.953 32.1345 126.127C32.1593 126.102 32.1841 126.077 32.2089 126.028C28.3884 128.31 26.5278 129.402 22.7321 131.659C22.5584 131.635 20.0031 131.411 17.4727 131.188C17.423 131.684 17.3734 132.205 17.3238 132.701C21.8142 132.701 26.3293 132.701 30.77 132.701C31.1173 133.843 31.4647 134.959 31.936 136.398C33.2757 135.753 34.3424 135.257 35.4588 134.711C36.5504 135.48 37.5675 136.224 39.0064 137.266C38.7832 139.648 38.5351 142.153 38.2622 144.932C39.7507 147.314 41.4625 150.067 43.1495 152.796C42.9262 152.945 42.7029 153.094 42.4796 153.243C43.0254 154.012 43.5712 154.806 44.4395 156.071C30.3979 157.684 16.778 159.222 4.17532 160.661C2.63719 164.431 1.86813 166.218 0.826172 168.723C4.57225 169.964 8.07025 171.105 11.6923 172.296C12.4117 171.353 13.0568 170.534 13.0816 170.51C15.9345 170.758 18.7131 171.03 21.442 171.279C18.7131 182.591 18.3658 196.186 18.8619 209.905C18.9364 211.617 20.6482 213.304 22.8809 217.001C22.1863 217.001 21.5661 217.001 20.5489 217.001C21.4172 218.613 22.0622 219.779 22.6825 220.945C23.6748 221.044 24.5431 221.119 25.0393 221.168C26.3789 222.384 27.4457 223.327 28.2396 224.021C27.3216 225.212 26.4285 226.353 25.4362 227.643C29.7777 229.206 33.4493 230.521 36.8977 231.786C37.2946 232.977 37.5427 233.796 38.1629 235.706C52.0557 240.494 66.4942 245.456 80.9328 250.418C87.383 252.179 93.337 256.024 99.7872 257.19C110.703 259.175 113.184 262.673 108.173 272.249C109.512 273.266 110.877 274.308 112.018 275.177C111.348 276.69 110.852 277.856 110.256 279.22C121.445 280.56 132.113 281.85 143.996 283.289C141.54 284.48 140.25 285.075 136.33 286.961C141.391 287.457 143.946 287.705 146.402 287.953C146.849 286.638 147.122 285.844 147.668 284.256C149.479 285.298 151.042 286.191 152.977 287.283C154.242 287.283 155.978 287.283 159.352 287.283C155.879 285.522 153.845 284.48 151.786 283.413C151.959 282.594 152.108 281.776 152.282 280.957C211.872 280.957 271.437 280.957 331.027 280.957C331.027 280.262 331.027 279.568 331.027 278.898C324.056 278.898 317.085 278.898 310.114 278.898C310.114 278.302 310.138 277.707 310.138 277.112C342.092 277.112 374.045 277.112 406.271 277.112C405.85 275.896 405.577 275.152 405.428 274.78C429.294 274.78 453.159 273.862 476.926 275.028C500.692 276.218 524.36 279.493 548.151 281.875C548.796 281.304 549.516 280.709 550.26 280.064C550.806 280.783 551.227 281.329 551.699 281.949C552.765 281.403 553.609 280.982 554.477 280.56C554.552 281.602 554.626 282.619 554.725 283.661C573.282 282.495 591.864 281.304 610.42 280.138C610.445 279.617 610.445 279.071 610.47 278.55C612.901 277.93 615.332 277.285 617.466 276.739C618.458 273.713 619.302 271.182 620.071 268.85C624.611 268.85 628.406 268.85 632.128 268.85C632.946 266.866 633.616 265.303 634.385 263.442C630.49 260.986 626.893 258.704 623.618 256.645C621.708 252.874 619.922 249.351 618.458 246.473C612.38 245.382 607.096 244.439 601.812 243.471C601.911 242.578 602.01 241.685 602.085 240.792C611.165 241.536 620.245 242.28 629.126 243C629.969 241.214 630.515 240.097 631.086 238.857C630.218 238.088 629.473 237.443 627.513 235.681C641.034 235.681 653.215 235.681 665.396 235.681C665.371 235.185 665.346 234.664 665.346 234.168C663.089 233.597 660.806 233.027 658.35 232.407C658.077 231.687 657.73 230.819 657.457 230.124C645.45 226.75 633.666 223.451 623.618 220.623C632.525 217.943 642.845 214.842 653.141 211.741C652.942 210.997 652.768 210.253 652.57 209.533C660.013 208.07 667.43 206.581 677.106 204.671C666.686 201.917 658.871 199.833 650.263 197.551C651.677 196.608 652.297 195.814 653.041 195.74C668.423 193.829 683.779 191.249 699.21 190.381C715.807 189.438 732.528 190.307 749.174 189.91C752.077 189.835 754.93 187.429 757.808 186.089C757.832 184.7 757.857 183.335 757.907 181.946C732.156 176.464 706.38 171.105 679.413 165.523ZM31.8864 126.499C31.7872 126.648 31.7624 126.673 31.8864 126.499V126.499ZM628.655 113.897C628.754 113.4 628.878 112.879 628.977 112.383C631.111 113.028 633.269 113.673 635.402 114.293C633.145 114.169 630.912 114.021 628.655 113.897ZM618.458 105.983C622.75 106.404 627.464 106.876 629.821 107.099C637.338 106.752 642.572 106.504 647.98 106.256C648.228 107.471 648.377 108.166 648.526 108.984C649.37 108.984 650.188 108.984 650.982 108.984C650.982 109.332 650.982 109.679 650.982 110.026C636.42 110.026 621.882 110.026 605.359 110.026C610.817 108.339 614.315 107.248 618.458 105.983ZM23.1042 216.728C23.129 216.827 23.129 216.901 23.1538 217.001C23.129 216.877 23.1042 216.802 23.1042 216.728ZM23.0298 216.281C23.0298 216.306 23.0298 216.356 23.0546 216.405C23.0298 216.356 23.0298 216.306 23.0298 216.281Z" fill="#011750"/>
<path d="M364.022 0.99234C364.022 0.669829 364.022 0.32251 363.997 0C361.343 0 358.663 0 356.009 0C356.034 0.32251 356.058 0.669829 356.083 0.99234C358.738 0.99234 361.367 0.99234 364.022 0.99234Z" fill="#011750"/>
<path d="M569.36 278.376C569.633 278.624 569.583 278.575 569.36 278.376V278.376Z" fill="#011750"/>
<path d="M873.189 287.903C878.498 285.521 883.088 283.462 887.677 281.403C882.691 281.403 877.704 281.403 872.123 281.403C872.544 283.958 872.743 285.099 873.189 287.903Z" fill="#011750"/>
<path d="M1060.64 238.335C1060.64 239.576 1060.64 240.394 1060.64 241.163C1063.42 242.156 1066.03 243.074 1068.41 243.917C1069.18 242.329 1069.92 240.791 1070.86 238.782C1070.27 238.261 1069.65 237.715 1068.88 237.045C1068.21 238.013 1067.69 238.782 1067.17 239.551C1064.98 239.154 1062.92 238.757 1060.64 238.335Z" fill="#011750"/>
<path d="M393.965 160.263C393.915 160.312 393.866 160.362 393.841 160.387C393.866 160.362 393.915 160.312 393.965 160.263Z" fill="#011750"/>
<path d="M1125.76 146.221C1099.84 143.294 1073.92 140.342 1047.62 137.365C1048.09 134.09 1048.51 131.262 1048.86 128.955C1046.08 127.888 1043.92 127.044 1041.61 126.151C1041.66 126.102 1041.71 126.077 1041.76 126.027C1021.79 122.157 1003.91 118.709 987.259 115.484C993.635 111.316 1000.71 106.701 1007.75 102.112C1007.21 101.119 1006.66 100.152 1006.11 99.1595C1019.16 93.5776 1032.21 87.9709 1045.34 82.3642C1045.61 82.7115 1046.1 83.3317 1046.1 83.3069C1053.3 83.3069 1059.8 83.3069 1065.78 83.3069C1067.59 81.868 1068.95 80.8013 1070.27 79.7593C1071.98 80.2555 1073.54 80.702 1075.08 81.1734C1075.65 79.8585 1076.1 78.8662 1076.74 77.3777C1077.51 78.5437 1077.93 79.1887 1078.43 79.933C1079.52 79.015 1080.54 78.1467 1082.08 76.8319C1081.38 75.8644 1080.71 74.9216 1079.99 73.9541C1080.54 73.3587 1081.33 72.54 1082.18 71.6469C1083.54 71.5477 1084.93 71.4733 1086.05 71.3988C1087.14 70.4065 1088.08 69.563 1088.97 68.7443C1088.43 67.9008 1087.93 67.1814 1087.88 67.107C1083.94 65.3952 1080.69 63.9811 1077.44 62.5918C1077.29 62.9639 1077.14 63.3609 1076.99 63.733C1078.33 64.6509 1079.65 65.544 1080.99 66.4619C1080.64 66.9085 1080.29 67.3302 1079.94 67.7768C1077.39 65.7425 1074.83 63.7082 1072.3 61.6739C1072.62 60.0117 1072.95 58.3744 1073.27 56.7122C1041.79 56.7122 1010.28 56.7122 978.799 56.7122C979.742 55.1989 980.685 53.6856 981.627 52.1723C979.841 46.0694 978.03 39.9913 975.525 31.482C975.177 31.9285 974.954 32.2014 974.83 32.3751C975.028 32.1022 975.401 31.6308 975.797 31.1347C975.351 29.9935 974.929 28.9515 974.855 28.753C973.143 27.9344 972.25 27.5126 971.878 27.339C964.882 26.0985 958.307 24.9325 951.262 23.6673C950.989 24.1635 950.121 25.7512 949.079 27.6615C944.464 26.1233 940.371 24.7837 935.98 23.3448C935.881 24.9077 935.856 25.7016 935.781 26.6939C934.839 26.0737 934.045 25.5776 934.64 25.9745C927.595 25.9745 921.963 25.9745 917.125 25.9745C915.637 23.9402 914.744 22.7494 914.074 21.8563C912.015 22.9975 910.576 23.7913 909.013 24.6596C908.591 23.2456 908.343 22.4517 908.542 23.0719C839.996 20.343 772.145 17.614 704.293 14.9099C704.145 15.282 704.02 15.6542 703.872 16.0263C699.555 15.0091 695.213 13.992 690.103 12.8012C690.128 12.7516 689.309 14.0416 688.317 15.6293C686.258 15.7534 683.901 15.9022 681.817 16.0263C680.849 14.6866 680.08 13.6199 677.897 10.5932C679.138 13.7935 679.46 14.6618 680.179 16.5473C676.756 15.6045 674.25 14.9347 671.769 14.2649C671.769 14.2897 671.769 15.0091 671.769 15.9767C668.222 15.9767 664.823 15.9767 661.102 15.9767C660.879 13.992 660.705 12.3794 660.506 10.7669C658.001 12.826 655.396 14.9595 650.657 18.8545C651.947 14.2401 652.394 12.6771 652.816 11.1886C651.947 11.4863 651.079 11.8088 650.211 12.1065C650.161 11.6848 650.112 11.2631 650.062 10.8413C647.308 11.3375 644.53 11.8088 642.917 12.1065C639.345 10.7173 636.765 9.72493 633.961 8.63335C633.788 7.76506 633.564 6.54944 633.341 5.35863C634.358 4.24225 635.227 3.27472 636.144 2.25757C637.856 4.16783 639.469 5.95404 641.478 8.1868C642.272 6.22693 642.595 5.43306 642.917 4.63919C645.845 4.78804 648.673 4.93689 651.526 5.06093C651.625 4.0934 651.699 3.12587 651.799 2.15834C643.81 1.43889 635.822 0.719446 627.685 0C627.164 0.570595 626.544 1.26523 627.114 0.620212C613.693 0.620212 601.611 0.620212 589.529 0.620212C589.529 1.33966 589.554 2.0591 589.554 2.77855C571.717 2.77855 553.855 2.77855 536.067 2.77855C534.703 6.97119 533.909 9.50165 532.495 13.8928C532.296 14.9843 531.825 17.8373 531.477 19.8468C530.063 20.9136 528.624 22.0051 527.012 23.1959C521.405 23.8162 515.451 24.486 509.423 25.1558C509.274 26.5451 509.15 27.7607 509.026 29.0507C507.413 29.671 505.949 30.2416 506.594 29.9935C503.221 32.9705 501.434 34.5334 499.574 36.1956C499.698 36.4933 500.045 37.2375 500.566 38.4284C494.786 39.1726 489.328 39.8672 484.937 40.4378C482.952 43.3156 481.513 45.3995 480.074 47.5083C480.67 47.9796 481.265 48.451 481.86 48.8975C476.824 55.5214 471.763 62.1453 466.727 68.7691C465.71 67.6776 464.693 66.6108 463.701 65.5192C458.937 64.5021 454.174 63.4601 446.335 61.7731C444.226 63.9563 440.48 67.7768 434.65 73.7556C440.753 74.3014 442.613 74.4751 444.697 74.6488C444.697 78.0723 444.697 81.099 444.697 84.7458C439.612 85.4404 433.732 84.7954 429.713 87.2267C426.19 89.3602 424.776 94.9173 421.204 101.07C421.774 100.871 422.171 100.722 422.444 100.623C422.295 100.673 422.146 100.722 421.973 100.797C423.288 102.757 424.404 104.419 425.272 105.709C434.824 105.238 443.779 104.816 452.165 104.419C451.867 107.793 451.619 110.348 451.247 114.367C451.396 114.045 450.899 115.186 449.684 117.94C437.949 118.907 425.347 119.974 411.578 121.115C411.33 122.306 410.784 124.712 410.189 127.516C410.04 127.565 409.246 127.838 408.006 128.285C409.817 130.914 411.454 133.271 413.215 135.802C412.67 136.844 411.95 138.208 411.28 139.498C387.29 141.905 387.067 142.103 392.178 157.211C392.823 158.005 393.468 158.774 394.435 159.94C394.262 160.089 394.138 160.213 394.063 160.288C394.212 160.164 394.386 159.99 394.485 159.891C397.462 160.784 400.191 161.578 402.895 162.396C402.87 162.818 402.87 163.215 402.845 163.637C409.544 164.257 416.242 164.877 422.841 165.497C423.685 167.234 424.553 169.07 425.892 171.873C431.102 171.873 436.287 171.873 441.497 171.873C441.323 173.982 441.15 176.091 440.976 178.199C441.547 178.299 442.117 178.373 442.688 178.472C442.514 179.217 442.365 179.961 442.167 180.854C443.035 180.978 443.854 181.102 444.921 181.251C444.4 182.318 444.003 183.161 443.631 183.98C443.978 184.774 444.251 185.443 445.144 187.478C434.774 188.693 424.975 189.835 413.463 191.199C413.066 191.844 411.578 194.275 410.139 196.657C410.784 197.922 411.33 198.964 411.851 199.981C409.345 204.447 408.973 208.788 409.593 212.956C409.767 214.122 412.942 214.817 415.398 216.082C415.423 216.107 415.795 216.975 416.192 217.918C420.137 217.694 423.933 217.471 427.703 217.248C428.076 218.637 428.274 219.456 428.547 220.473C429.39 220.225 430.06 220.051 430.929 219.803C430.755 220.026 430.606 220.25 430.482 220.423C430.507 220.399 430.532 220.374 430.556 220.324C426.736 222.607 424.875 223.698 421.08 225.956C420.906 225.931 418.351 225.708 415.82 225.484C415.771 225.981 415.721 226.502 415.671 226.998C420.162 226.998 424.677 226.998 429.118 226.998C429.465 228.139 429.812 229.255 430.284 230.694C431.623 230.049 432.69 229.553 433.806 229.007C434.898 229.776 435.915 230.52 437.354 231.562C437.131 233.944 436.883 236.45 436.61 239.228C438.098 241.61 439.81 244.364 441.497 247.093C441.274 247.241 441.05 247.39 440.827 247.539C441.373 248.308 441.919 249.102 442.787 250.367C428.745 251.98 415.126 253.518 402.523 254.957C400.935 258.753 400.191 260.539 399.124 263.044C402.87 264.285 406.368 265.426 409.99 266.617C410.71 265.674 411.355 264.855 411.38 264.831C418.152 265.451 424.478 266.021 430.805 266.592C430.78 267.163 430.78 267.733 430.755 268.304C432.417 267.758 434.104 267.237 433.831 267.311C442.167 267.311 448.567 267.311 454.993 267.311C454.993 267.287 454.993 267.262 454.993 267.237C458.516 267.237 462.038 267.237 464.966 267.237C466.628 264.806 467.868 263.02 469.431 260.712C470.994 263.491 471.441 264.334 472.334 265.922C474.467 264.979 476.551 264.086 478.908 263.044C479.131 263.962 479.429 265.128 480.049 267.733C509.15 270.884 538.597 274.084 568.144 277.284C568.641 277.756 569.137 278.202 569.41 278.451C599.105 280.857 627.089 283.139 655.073 285.397C655.173 284.876 655.247 284.355 655.346 283.834C663.831 283.263 672.29 282.668 680.725 282.097C681.296 283.04 681.718 283.784 682.065 284.33C688.664 283.611 695.065 282.916 701.267 282.221C701.937 283.412 702.309 284.057 702.681 284.727C735.701 284.727 768.547 284.727 801.394 284.727C801.394 284.429 801.369 284.107 801.369 283.809C805.537 283.809 809.68 283.809 813.848 283.809C813.823 284.032 813.823 284.256 813.798 284.504C826.301 284.504 838.805 284.504 851.308 284.504C851.308 285 851.308 285.496 851.284 285.992C852.102 285.695 852.946 285.372 853.144 285.298C858.602 285.298 863.44 285.298 869.319 285.298C869.394 285.223 870.411 284.479 871.254 283.859C871.354 282.37 871.428 281.229 871.503 279.939C877.209 279.468 882.716 279.021 887.926 278.575C887.926 279.666 887.926 280.584 887.926 281.502L887.876 281.452C887.827 281.477 887.802 281.477 887.752 281.502C887.802 281.502 887.851 281.502 887.901 281.502C888.372 282.221 888.819 282.916 889.315 283.685C887.678 284.429 886.462 284.975 883.187 286.464C887.281 286.861 889.141 287.034 890.928 287.208C891.151 286.712 891.325 286.29 891.449 286.017C891.424 286.067 891.424 286.091 891.399 286.141C924.121 286.141 955.901 286.141 985.225 286.141C985.001 285.943 982.719 283.933 979.891 281.428C977.187 281.428 973.441 281.428 969.695 281.428C969.521 280.907 969.347 280.361 969.174 279.84C972.672 278.649 976.17 277.433 979.668 276.243C979.618 275.722 979.568 275.201 979.519 274.704C996.711 274.704 1013.9 274.704 1031.12 274.704C1031.12 274.456 1031.1 274.233 1031.1 273.985C1040.57 273.563 1050.02 273.141 1059.28 272.745C1059.08 272.372 1058.61 271.579 1057.86 270.288C1069.75 270.288 1080.96 270.288 1092.15 270.288C1092.22 269.222 1092.32 268.18 1092.4 267.113C1074.09 264.855 1055.8 262.598 1037.5 260.315C1037.5 260.688 1037.5 261.06 1037.5 261.432C1022.81 260.365 1008.12 259.323 992.891 258.207C992.494 257.859 991.625 257.066 990.286 255.875C991.898 256.197 992.94 256.396 994.106 256.619C994.652 256.148 995.198 255.676 994.925 255.9C997.728 255.9 999.614 255.9 1001.5 255.9C1001.5 255.974 1001.5 256.024 1001.5 256.098C1003.09 256.098 1004.65 256.098 1005.1 256.098C1010.78 257.314 1013.75 257.959 1019.83 259.274C1019.66 259.15 1019.51 259.05 1019.36 258.951C1019.44 259.001 1019.53 259.075 1019.61 259.125C1019.96 258.48 1020.23 257.983 1020.35 257.76C1028.19 255.974 1035.04 254.386 1041.89 252.823C1041.69 252.079 1041.52 251.36 1041.32 250.615C1039.65 250.293 1037.99 249.995 1036.35 249.673C1036.38 249.251 1036.38 248.804 1036.4 248.383C1038.94 248.085 1041.44 247.812 1044.1 247.514C1043.85 248.556 1043.67 249.251 1043.25 251.037C1046.25 250.839 1048.71 250.69 1051.36 250.516C1051.56 250.913 1052.06 251.881 1052.78 253.295C1054.61 251.36 1056.05 249.822 1057.86 247.911C1059.72 248.085 1062.26 248.308 1064.79 248.556C1065.01 247.936 1065.23 247.316 1065.48 246.696C1062.26 245.058 1059.03 243.421 1055.9 241.833C1057.05 241.039 1058.29 240.171 1059.72 239.179C1059.2 238.286 1058.73 237.492 1057.76 235.854C1062.11 234.961 1066.15 234.143 1071.26 233.101C1071.36 233.051 1072.48 232.307 1073.77 231.488C1073.92 230.868 1074.14 230.049 1074.36 229.156C1078.06 226.526 1081.68 223.946 1085.8 221.019C1083.47 220.151 1081.7 219.282 1079.84 218.885C1064.56 215.462 1049.26 212.113 1033.97 208.739C1035.06 208.54 1036.21 208.118 1037.25 208.267C1052.28 210.252 1067.42 214.246 1081.88 206.58C1082.35 205.315 1082.65 204.472 1082.95 203.628C1087.26 200.428 1091.55 197.252 1095.87 194.052C1096.09 194.35 1096.32 194.647 1096.57 194.945C1096.74 194.722 1096.91 194.499 1097.11 194.275C1100.61 195.615 1104.13 197.252 1107.73 197.674C1112.54 198.22 1117.65 196.111 1122.64 195.168C1122.54 194.126 1122.47 193.084 1122.37 192.067C1114.4 190.777 1106.46 189.487 1098.5 188.197C1090.88 186.436 1083.52 184.749 1077.34 183.335C1075.01 183.434 1073.34 183.508 1071.91 183.583C1071.91 183.409 1071.93 183.236 1071.93 183.062C1079.15 183.062 1086.37 183.062 1094.33 183.062C1094.53 182.367 1095.6 180.308 1095.18 179.936C1093.96 178.844 1092.12 178.447 1090.54 177.778C1090.61 177.604 1090.66 177.43 1090.74 177.257C1086.67 175.644 1082.6 174.007 1077.93 172.171C1079.27 171.03 1080.94 169.467 1083.22 167.681C1089.15 165.82 1094.68 164.059 1100.16 162.322C1098.97 158.998 1098.48 157.608 1097.76 155.524C1096.47 154.706 1094.63 153.515 1091.43 151.431C1104.55 150.042 1115.17 148.925 1125.76 147.784C1125.72 147.189 1125.74 146.693 1125.76 146.221ZM1029.95 74.8968C1033.45 75.3186 1036.93 75.7403 1040.42 76.1621C1040.3 76.8071 1040.18 77.4273 1040.05 78.0723C1036.6 77.6258 1033.15 77.204 1029.71 76.7575C1029.78 76.1373 1029.86 75.517 1029.95 74.8968ZM430.085 220.771C429.986 220.92 429.961 220.944 430.085 220.771V220.771ZM1040.8 126.895C1040.77 126.92 1040.75 126.92 1040.8 126.895V126.895ZM1041.42 126.325C1041.22 126.498 1041.02 126.672 1040.89 126.796C1040.99 126.697 1041.19 126.548 1041.42 126.325ZM980.412 57.8038C980.139 59.9621 979.965 61.3266 979.742 62.9143C978.427 61.7731 977.41 60.9297 975.847 59.59C977.187 59.069 978.402 58.5728 980.412 57.8038ZM645.795 12.826C646.589 13.9424 647.259 14.8603 648.648 16.7705C646.44 16.0759 645.348 15.7286 643.686 15.1828C644.555 14.1905 645.051 13.6447 645.795 12.826ZM621.433 7.19446C622.276 6.02846 623.046 4.93689 623.79 3.91974C625.452 5.08574 626.469 5.80519 627.437 6.47502C627.164 8.88144 626.891 11.139 626.618 13.3718C626.221 13.347 625.849 13.2974 625.452 13.2725C625.452 11.5111 625.452 9.72493 625.452 7.3185C624.187 7.64102 623.095 7.91391 621.235 8.41008C621.036 8.26123 619.895 7.56659 615.504 4.9617C619.796 6.57425 620.54 6.84714 621.433 7.19446ZM582.384 2.82817C582.856 3.7957 583.253 4.63919 583.451 5.08574C585.957 5.50748 588.041 5.8548 589.777 6.15251C591.936 5.50748 593.92 4.88727 595.88 4.29187C596.178 4.81285 596.476 5.30902 596.749 5.83C595.657 6.67348 594.541 7.49216 592.903 8.7574C592.779 10.618 592.63 12.95 592.481 15.0588C590.72 15.9271 589.256 16.6465 586.503 17.9862C588.438 15.7286 589.653 14.2897 591.167 12.5531C591.067 12.2554 590.77 11.2134 590.274 9.57608C588.19 9.45203 585.907 9.30318 583.873 9.17914C582.434 7.19446 580.995 5.2594 579.457 3.15068C580.301 3.05144 581.293 2.9274 582.384 2.82817ZM891.523 285.67C891.573 285.546 891.573 285.521 891.523 285.67V285.67ZM891.449 285.843C891.473 285.794 891.498 285.744 891.523 285.695C891.498 285.744 891.473 285.794 891.449 285.843ZM1019.19 258.728C1018.2 258.008 1018.54 258.281 1019.19 258.728V258.728ZM1026.85 208.168C1026.95 207.672 1027.08 207.151 1027.18 206.655C1029.31 207.3 1031.47 207.945 1033.6 208.565C1031.37 208.441 1029.11 208.292 1026.85 208.168ZM1049.18 204.298C1034.62 204.298 1020.08 204.298 1003.56 204.298C1008.99 202.611 1012.51 201.519 1016.66 200.254C1020.95 200.676 1025.66 201.147 1028.02 201.371C1035.54 201.023 1040.77 200.775 1046.18 200.527C1046.43 201.743 1046.58 202.437 1046.72 203.256C1047.57 203.256 1048.39 203.256 1049.18 203.256C1049.21 203.603 1049.21 203.951 1049.18 204.298Z" fill="#011750"/>
<path d="M652.84 11.0893C653.46 11.6103 654.08 12.1313 655.544 13.3469C655.197 11.2382 655.073 10.4691 654.949 9.79928C655.544 9.70005 656.04 9.62562 656.189 9.60081C655.916 7.76498 655.668 6.20205 655.395 4.46545C654.874 4.46545 654.329 4.46545 654.155 4.46545C652.443 6.00358 651.476 6.84707 650.682 7.56652C651.426 8.73251 652.121 9.92332 652.84 11.0893C652.84 11.1141 652.815 11.1389 652.815 11.1637C652.84 11.1637 652.865 11.1389 652.865 11.1389C652.89 11.1637 652.84 11.0893 652.84 11.0893Z" fill="#011750"/>
<path d="M393.838 160.387C393.717 160.484 393.741 160.46 393.838 160.387V160.387Z" fill="#011750"/>
<path d="M664.624 5.8797C664.649 6.05336 664.649 6.22702 664.674 6.40068C665.964 6.02855 667.279 5.65643 668.048 5.45796C670.529 5.97894 672.712 6.42549 674.895 6.87204C674.945 6.27664 674.994 5.70604 675.044 5.11064C671.521 4.83775 667.998 4.54004 664.5 4.26715C664.525 4.61447 664.55 4.9866 664.575 5.33392C662.367 4.56485 661.647 4.31677 660.68 3.99426C661.548 3.27481 662.094 2.80345 663.483 1.63745C660.456 1.7863 658.447 1.88554 656.016 2.00958C656.934 4.01907 657.554 5.38353 658.447 7.36821C660.01 6.99608 661.548 6.62396 664.624 5.8797Z" fill="#011750"/>
<path d="M689.358 6.02865C687.647 5.25959 685.935 4.46572 684.198 3.69666C683.925 4.29206 683.652 4.88746 683.404 5.48287C685.141 6.1775 686.902 6.84733 688.639 7.54197C688.862 7.02099 689.11 6.52482 689.358 6.02865Z" fill="#011750"/>
</svg>
