<svg width="1079" height="420" viewBox="0 0 1079 420" fill="none" xmlns="http://www.w3.org/2000/svg">
<path d="M993.045 135.414C1017.25 134.039 1041.63 135.305 1065.91 134.726C1070.14 134.618 1074.3 131.108 1078.5 129.155C1078.54 127.129 1078.57 125.139 1078.64 123.113C1041.05 115.298 1003.43 107.484 964.138 99.3433C978.899 97.2449 992.864 96.9555 1005.64 92.9035C1016.78 89.3579 1026.55 81.5433 1036.93 75.6461C1029.87 68.2656 1024.09 57.1949 1015.48 54.192C990.404 45.4729 964.536 37.803 938.378 33.7147C892.142 26.5513 845.543 21.5586 798.945 17.181C758.569 13.3822 718.049 11.3562 677.528 9.11307C644.352 7.26795 611.14 5.85697 577.928 4.95249C515.338 3.25208 452.748 1.73257 390.159 0.755738C344.935 -0.00401986 299.639 0.176875 254.343 0.0321591C229.126 -0.0401988 203.91 0.0321591 177.354 0.0321591C179.67 3.3968 181.117 5.49518 183.939 9.65576C176.956 13.9972 170.915 19.0985 163.932 21.7757C149.858 27.1664 135.604 32.955 120.879 35.379C107.891 37.5135 98.0501 39.6843 95.59 54.8794C94.2875 62.875 91.8997 75.7185 87.0518 77.2742C68.8176 83.2075 49.3895 85.4144 30.4317 88.9962C30.3955 88.3449 30.3955 87.7299 30.3594 87.0787C24.4984 89.7559 18.6736 92.4332 7.56662 97.5344C0.728803 115.588 -0.103313 139.755 0.764981 164.104C0.873518 166.6 3.36987 169.06 6.62597 174.451C5.61296 174.451 4.70849 174.451 3.22515 174.451C4.49141 176.802 5.43206 178.503 6.33654 180.203C7.7837 180.348 9.04996 180.457 9.77354 180.529C11.7272 182.302 13.2829 183.676 14.4406 184.689C13.102 186.426 11.7996 188.09 10.3524 189.972C16.6837 192.251 22.0382 194.168 27.0671 196.013C27.6459 197.75 28.0077 198.944 28.9122 201.73C46.9293 207.916 65.5976 214.356 84.3383 220.796C81.0822 224.124 76.3428 229.009 69.722 235.81C78.6221 236.606 81.3355 236.859 84.3745 237.113C84.3745 242.105 84.3745 246.519 84.3745 251.838C76.9578 252.851 68.3834 251.91 62.5224 255.455C57.385 258.567 55.3228 266.671 50.1131 275.643C50.9452 275.354 51.524 275.137 51.922 274.992C51.7049 275.064 51.4879 275.137 51.2346 275.245C53.1521 278.103 54.7801 280.527 56.0464 282.409C69.9753 281.721 83.0359 281.106 95.2644 280.527C94.8302 285.448 94.4684 289.174 93.9258 295.035C93.781 295.325 93.0575 297.025 91.6465 300.245C74.5338 301.656 56.1549 303.212 36.0756 304.876C35.7138 306.612 34.9179 310.122 34.0496 314.21C33.8325 314.282 32.6748 314.68 30.8659 315.332C33.5069 319.167 35.8947 322.604 38.4634 326.294C37.6675 327.813 36.6183 329.803 35.6415 331.684C0.656444 335.194 0.330834 335.483 7.7837 357.516C8.72435 358.674 9.665 359.795 11.076 361.496C10.8227 361.713 10.6418 361.894 10.5333 362.002C10.7504 361.821 11.0036 361.568 11.1483 361.424C15.4898 362.726 19.4695 363.884 23.413 365.078C23.3768 365.693 23.3768 366.272 23.3406 366.887C33.109 367.791 42.8773 368.695 52.5009 369.6C53.7309 372.133 54.9972 374.81 56.9509 378.898C89.3672 378.898 121.566 378.898 153.766 378.898C153.73 379.766 153.693 380.671 153.657 381.539C155.502 382.009 157.347 382.48 159.518 383.022C158.324 383.674 157.094 384.325 155.502 385.229C156.913 386.242 157.962 387.038 158.035 387.074C163.1 386.676 167.007 386.351 170.915 386.061C170.734 386.785 170.553 387.509 170.372 388.232C179.67 390.403 188.968 392.574 199.93 395.142C201.16 396.191 204.018 398.652 206.913 401.148C206.84 401.22 206.804 401.293 206.732 401.401C225.509 405.091 241.753 408.275 259.661 411.821C259.915 412.146 260.349 412.725 260.892 413.376C264.329 412.544 267.729 411.748 271.166 410.916C271.094 411.568 271.022 412.219 270.949 412.906C280.645 413.34 290.305 413.811 300.001 414.245C300.001 413.557 299.965 412.906 299.965 412.219C343.597 412.219 387.228 412.219 430.86 412.219C430.86 411.495 430.86 410.772 430.86 410.084C448.479 410.084 466.062 410.084 484.043 410.084C484.839 409.614 485.997 408.999 487.408 408.203C491.388 408.529 495.584 408.854 505.642 409.65C571.777 409.65 643.773 409.65 720.798 409.65C721.703 409.505 727.817 408.565 733.28 407.733C742.904 407.733 752.093 407.733 760.631 407.733C762.73 406.394 764.683 405.128 766.854 403.789C768.12 406.105 768.772 407.298 768.772 407.298C773.547 407.66 777.382 407.95 784.509 408.492C783.713 408.601 786.354 408.203 789.104 407.769C789.972 408.456 790.949 409.216 791.528 409.686C798.474 409.686 804.878 409.686 811.644 409.686C812.078 410.337 812.801 411.459 814.429 413.883C815.008 412.617 815.479 411.568 815.659 411.133C826.043 412.002 834.762 412.725 843.481 413.449C843.517 413.015 843.553 412.581 843.59 412.146C872.605 414.353 901.584 416.596 930.6 418.803C930.564 419.02 930.564 419.201 930.527 419.418C933.205 419.708 935.918 420.033 935.665 419.997C941.019 418.514 943.48 417.718 946.012 417.175C956.215 414.932 966.381 411.857 976.728 410.844C992.828 409.288 1009.07 408.058 1025.17 408.818C1033.96 409.252 1042.43 415.402 1051.33 416.415C1058.35 417.211 1065.8 414.136 1073.07 412.761C1072.93 411.242 1072.82 409.722 1072.67 408.239C1048.15 404.259 1023.62 400.28 999.123 396.3C999.159 395.902 999.159 395.504 999.159 395.106C1009.69 395.106 1020.22 395.106 1031.83 395.106C1032.12 394.093 1033.67 391.09 1033.06 390.548C1031.29 388.956 1028.61 388.377 1026.29 387.4C1026.4 387.147 1026.47 386.893 1026.58 386.64C1019.02 383.637 1011.5 380.635 1002.13 376.908C1016.31 372.422 1028.28 368.659 1040.29 364.861C1038.56 360.013 1037.83 357.987 1036.79 354.948C1034.9 353.754 1032.23 352.017 1027.56 348.978C1046.7 346.952 1062.18 345.324 1077.63 343.66C1077.67 342.972 1077.7 342.285 1077.74 341.561C1039.93 337.292 1002.13 332.987 963.776 328.645C964.463 323.87 965.078 319.745 965.585 316.381C961.533 314.825 958.385 313.595 955.021 312.293C955.093 312.22 955.165 312.184 955.238 312.112C926.114 306.468 900.029 301.439 875.753 296.736C885.051 290.658 895.362 283.928 905.636 277.235C904.84 275.788 904.045 274.377 903.249 272.93C922.279 264.79 941.309 256.613 960.447 248.437C960.845 248.943 961.569 249.848 961.569 249.812C972.061 249.812 981.54 249.812 990.259 249.812C992.9 247.713 994.89 246.157 996.807 244.638C999.304 245.362 1001.58 246.013 1003.83 246.7C1004.66 244.783 1005.31 243.335 1006.25 241.165C1007.37 242.865 1007.99 243.806 1008.71 244.891C1010.3 243.553 1011.79 242.25 1014.03 240.369C1013.02 238.958 1012.04 237.583 1010.99 236.172C1011.79 235.304 1012.94 234.11 1014.17 232.807C1016.16 232.663 1018.19 232.554 1019.82 232.446C1021.41 230.998 1022.78 229.768 1024.09 228.574C1023.29 227.344 1022.57 226.295 1022.49 226.187C1016.74 223.69 1012 221.628 1007.26 219.602C1007.05 220.145 1006.83 220.724 1006.61 221.266C1008.57 222.605 1010.48 223.907 1012.44 225.246C1011.93 225.897 1011.42 226.512 1010.92 227.164C1007.19 224.197 1003.46 221.23 999.774 218.264C1000.24 215.84 1000.71 213.452 1001.18 211.028C964.644 211.028 928.104 211.028 891.527 211.028C892.395 209.146 893.082 207.772 893.77 206.288C892.503 205.167 891.418 204.226 888.56 201.657C908.278 201.657 926.041 201.657 943.805 201.657C943.769 200.934 943.733 200.174 943.733 199.45C940.44 198.618 937.112 197.786 933.53 196.882C933.132 195.833 932.626 194.566 932.228 193.553C914.717 188.633 897.532 183.821 882.88 179.697C895.868 175.789 910.919 171.267 925.933 166.745C925.643 165.659 925.39 164.574 925.101 163.525C935.954 161.39 946.772 159.219 960.882 156.434C945.687 152.418 934.29 149.379 921.736 146.05C923.798 144.676 924.703 143.518 925.788 143.409C948.111 140.479 970.505 136.68 993.045 135.414ZM6.98776 174.017C7.02394 174.161 7.02394 174.27 7.06012 174.415C7.02394 174.27 6.98776 174.125 6.98776 174.017ZM6.87922 173.365C6.87922 173.402 6.87922 173.474 6.9154 173.546C6.9154 173.474 6.87922 173.402 6.87922 173.365ZM953.827 313.197C953.754 313.233 953.754 313.233 953.827 313.197V313.197ZM954.731 312.365C954.442 312.618 954.152 312.871 953.971 313.052C954.116 312.908 954.406 312.69 954.731 312.365ZM937.98 237.366C943.082 237.981 948.147 238.596 953.248 239.211C953.067 240.152 952.886 241.056 952.705 241.997C947.676 241.346 942.647 240.731 937.619 240.079C937.763 239.175 937.872 238.27 937.98 237.366ZM865.369 215.478C863.669 215.188 862.005 214.863 860.34 214.573C861.86 213.994 863.452 213.343 865.731 212.439C865.586 213.596 865.478 214.537 865.369 215.478ZM208.143 399.411C208.251 399.267 208.251 399.267 208.143 399.411V399.411ZM863.343 210.883C863.524 210.594 863.705 210.268 863.886 209.979C867.576 210.268 871.266 210.594 874.921 210.883C871.086 210.883 867.214 210.883 863.343 210.883Z" fill="#011750"/>
<path d="M10.5316 361.894C10.4592 361.966 10.3868 362.039 10.3506 362.075C10.3868 362.003 10.4592 361.966 10.5316 361.894Z" fill="#011750"/>
<path d="M10.346 362.039C10.1696 362.18 10.2049 362.18 10.346 362.039V362.039Z" fill="#011750"/>
<path d="M841.126 417.031C844.057 417.465 846.951 417.899 849.882 418.37C850.099 417.465 850.28 416.561 850.497 415.656C847.711 415.077 844.961 414.499 842.176 413.92C841.814 414.933 841.488 415.982 841.126 417.031Z" fill="#011750"/>
</svg>
